<mxfile host="65bd71144e">
    <diagram name="Github" id="NimxySekIVXsbhxGLXjq">
        <mxGraphModel dx="2403" dy="2000" grid="1" gridSize="10" guides="1" tooltips="1" connect="1" arrows="1" fold="1" page="1" pageScale="1" pageWidth="850" pageHeight="1100" math="0" shadow="0">
            <root>
                <mxCell id="2Pb3vf8uHDK2GDHuvUot-0"/>
                <mxCell id="2Pb3vf8uHDK2GDHuvUot-1" parent="2Pb3vf8uHDK2GDHuvUot-0"/>
                <mxCell id="b1emzD9QmPzB0jJMNrQz-0" value="GitHub Actions" style="fillColor=none;strokeColor=#6C8EBF;dashed=1;verticalAlign=top;fontStyle=0;fontColor=#000000;" parent="2Pb3vf8uHDK2GDHuvUot-1" vertex="1">
                    <mxGeometry x="-720" y="40" width="160" height="480" as="geometry"/>
                </mxCell>
                <mxCell id="2Pb3vf8uHDK2GDHuvUot-2" value="AWS Cloud" style="points=[[0,0],[0.25,0],[0.5,0],[0.75,0],[1,0],[1,0.25],[1,0.5],[1,0.75],[1,1],[0.75,1],[0.5,1],[0.25,1],[0,1],[0,0.75],[0,0.5],[0,0.25]];outlineConnect=0;gradientColor=none;html=1;whiteSpace=wrap;fontSize=12;fontStyle=0;container=1;pointerEvents=0;collapsible=0;recursiveResize=0;shape=mxgraph.aws4.group;grIcon=mxgraph.aws4.group_aws_cloud_alt;strokeColor=#232F3E;fillColor=none;verticalAlign=top;align=left;spacingLeft=30;fontColor=#232F3E;dashed=0;" parent="2Pb3vf8uHDK2GDHuvUot-1" vertex="1">
                    <mxGeometry x="-520" y="40" width="600" height="480" as="geometry"/>
                </mxCell>
                <mxCell id="2Pb3vf8uHDK2GDHuvUot-18" value="CodeDeploy" style="sketch=0;points=[[0,0,0],[0.25,0,0],[0.5,0,0],[0.75,0,0],[1,0,0],[0,1,0],[0.25,1,0],[0.5,1,0],[0.75,1,0],[1,1,0],[0,0.25,0],[0,0.5,0],[0,0.75,0],[1,0.25,0],[1,0.5,0],[1,0.75,0]];outlineConnect=0;fontColor=#232F3E;gradientColor=#4D72F3;gradientDirection=north;fillColor=#3334B9;strokeColor=#ffffff;dashed=0;verticalLabelPosition=bottom;verticalAlign=top;align=center;html=1;fontSize=12;fontStyle=0;aspect=fixed;shape=mxgraph.aws4.resourceIcon;resIcon=mxgraph.aws4.codedeploy;" parent="2Pb3vf8uHDK2GDHuvUot-2" vertex="1">
                    <mxGeometry x="400" y="360" width="40" height="40" as="geometry"/>
                </mxCell>
                <mxCell id="2Pb3vf8uHDK2GDHuvUot-16" value="Artifact S3" style="sketch=0;points=[[0,0,0],[0.25,0,0],[0.5,0,0],[0.75,0,0],[1,0,0],[0,1,0],[0.25,1,0],[0.5,1,0],[0.75,1,0],[1,1,0],[0,0.25,0],[0,0.5,0],[0,0.75,0],[1,0.25,0],[1,0.5,0],[1,0.75,0]];outlineConnect=0;fontColor=#232F3E;gradientColor=#60A337;gradientDirection=north;fillColor=#277116;strokeColor=#ffffff;dashed=0;verticalLabelPosition=bottom;verticalAlign=top;align=center;html=1;fontSize=12;fontStyle=0;aspect=fixed;shape=mxgraph.aws4.resourceIcon;resIcon=mxgraph.aws4.s3;" parent="2Pb3vf8uHDK2GDHuvUot-2" vertex="1">
                    <mxGeometry x="240" y="360" width="40" height="40" as="geometry"/>
                </mxCell>
                <mxCell id="2Pb3vf8uHDK2GDHuvUot-3" value="VPC - 10.0.0.0/16" style="points=[[0,0],[0.25,0],[0.5,0],[0.75,0],[1,0],[1,0.25],[1,0.5],[1,0.75],[1,1],[0.75,1],[0.5,1],[0.25,1],[0,1],[0,0.75],[0,0.5],[0,0.25]];outlineConnect=0;gradientColor=none;html=1;whiteSpace=wrap;fontSize=12;fontStyle=0;container=1;pointerEvents=0;collapsible=0;recursiveResize=0;shape=mxgraph.aws4.group;grIcon=mxgraph.aws4.group_vpc;strokeColor=#248814;fillColor=none;verticalAlign=top;align=left;spacingLeft=30;fontColor=#AAB7B8;dashed=0;" parent="2Pb3vf8uHDK2GDHuvUot-2" vertex="1">
                    <mxGeometry x="160" y="40" width="360" height="280" as="geometry"/>
                </mxCell>
                <mxCell id="2Pb3vf8uHDK2GDHuvUot-4" value="Public subnet - 10.0.1.0/24" style="points=[[0,0],[0.25,0],[0.5,0],[0.75,0],[1,0],[1,0.25],[1,0.5],[1,0.75],[1,1],[0.75,1],[0.5,1],[0.25,1],[0,1],[0,0.75],[0,0.5],[0,0.25]];outlineConnect=0;gradientColor=none;html=1;whiteSpace=wrap;fontSize=12;fontStyle=0;container=1;pointerEvents=0;collapsible=0;recursiveResize=0;shape=mxgraph.aws4.group;grIcon=mxgraph.aws4.group_security_group;grStroke=0;strokeColor=#248814;fillColor=#E9F3E6;verticalAlign=top;align=left;spacingLeft=30;fontColor=#248814;dashed=0;" parent="2Pb3vf8uHDK2GDHuvUot-3" vertex="1">
                    <mxGeometry x="40" y="40" width="280" height="200" as="geometry"/>
                </mxCell>
                <mxCell id="2Pb3vf8uHDK2GDHuvUot-11" value="Runner Server" style="sketch=0;points=[[0,0,0],[0.25,0,0],[0.5,0,0],[0.75,0,0],[1,0,0],[0,1,0],[0.25,1,0],[0.5,1,0],[0.75,1,0],[1,1,0],[0,0.25,0],[0,0.5,0],[0,0.75,0],[1,0.25,0],[1,0.5,0],[1,0.75,0]];outlineConnect=0;fontColor=#232F3E;gradientColor=#F78E04;gradientDirection=north;fillColor=#D05C17;strokeColor=#ffffff;dashed=0;verticalLabelPosition=bottom;verticalAlign=top;align=center;html=1;fontSize=12;fontStyle=0;aspect=fixed;shape=mxgraph.aws4.resourceIcon;resIcon=mxgraph.aws4.ec2;" parent="2Pb3vf8uHDK2GDHuvUot-4" vertex="1">
                    <mxGeometry x="40" y="80" width="40" height="40" as="geometry"/>
                </mxCell>
                <mxCell id="0" value="Web Server" style="sketch=0;points=[[0,0,0],[0.25,0,0],[0.5,0,0],[0.75,0,0],[1,0,0],[0,1,0],[0.25,1,0],[0.5,1,0],[0.75,1,0],[1,1,0],[0,0.25,0],[0,0.5,0],[0,0.75,0],[1,0.25,0],[1,0.5,0],[1,0.75,0]];outlineConnect=0;fontColor=#232F3E;gradientColor=#F78E04;gradientDirection=north;fillColor=#D05C17;strokeColor=#ffffff;dashed=0;verticalLabelPosition=bottom;verticalAlign=top;align=center;html=1;fontSize=12;fontStyle=0;aspect=fixed;shape=mxgraph.aws4.resourceIcon;resIcon=mxgraph.aws4.ec2;" vertex="1" parent="2Pb3vf8uHDK2GDHuvUot-4">
                    <mxGeometry x="200" y="80" width="40" height="40" as="geometry"/>
                </mxCell>
                <mxCell id="5" value="Upload Artifact" style="edgeStyle=orthogonalEdgeStyle;rounded=0;html=1;sourcePerimeterSpacing=24;targetPerimeterSpacing=6;fillColor=#dae8fc;strokeColor=#6c8ebf;fontColor=#6C8EBF;" edge="1" parent="2Pb3vf8uHDK2GDHuvUot-2" source="2Pb3vf8uHDK2GDHuvUot-11" target="2Pb3vf8uHDK2GDHuvUot-16">
                    <mxGeometry x="0.1692" relative="1" as="geometry">
                        <mxPoint as="offset"/>
                    </mxGeometry>
                </mxCell>
                <mxCell id="6" style="edgeStyle=orthogonalEdgeStyle;rounded=0;html=1;sourcePerimeterSpacing=6;targetPerimeterSpacing=6;fillColor=#ffe6cc;strokeColor=#D86613;" edge="1" parent="2Pb3vf8uHDK2GDHuvUot-2" source="2Pb3vf8uHDK2GDHuvUot-11" target="2Pb3vf8uHDK2GDHuvUot-18">
                    <mxGeometry relative="1" as="geometry">
                        <Array as="points">
                            <mxPoint x="350" y="180"/>
                            <mxPoint x="350" y="370"/>
                        </Array>
                    </mxGeometry>
                </mxCell>
                <mxCell id="7" style="edgeStyle=orthogonalEdgeStyle;rounded=0;html=1;sourcePerimeterSpacing=6;targetPerimeterSpacing=24;fillColor=#ffe6cc;strokeColor=#D86613;" edge="1" parent="2Pb3vf8uHDK2GDHuvUot-2" source="2Pb3vf8uHDK2GDHuvUot-18" target="0">
                    <mxGeometry relative="1" as="geometry"/>
                </mxCell>
                <mxCell id="McQxwyNHK4A3xQak3Kqz-7" value="Retrieve Deployment Artifacts" style="edgeStyle=orthogonalEdgeStyle;rounded=0;html=1;fontColor=#6C8EBF;sourcePerimeterSpacing=6;targetPerimeterSpacing=24;fillColor=#d5e8d4;strokeColor=#6C8EBF;dashed=1;strokeWidth=1;endArrow=classic;endFill=1;" edge="1" parent="2Pb3vf8uHDK2GDHuvUot-2" source="0" target="2Pb3vf8uHDK2GDHuvUot-16">
                    <mxGeometry x="0.4913" relative="1" as="geometry">
                        <Array as="points">
                            <mxPoint x="560" y="180"/>
                            <mxPoint x="560" y="450"/>
                            <mxPoint x="260" y="450"/>
                        </Array>
                        <mxPoint as="offset"/>
                        <mxPoint x="170" y="193.99999999999955" as="sourcePoint"/>
                        <mxPoint x="780" y="363.99999999999955" as="targetPoint"/>
                    </mxGeometry>
                </mxCell>
                <mxCell id="b1emzD9QmPzB0jJMNrQz-11" value="On Push" style="edgeStyle=none;html=1;sourcePerimeterSpacing=26;targetPerimeterSpacing=6;" parent="2Pb3vf8uHDK2GDHuvUot-1" source="2Pb3vf8uHDK2GDHuvUot-14" target="2Pb3vf8uHDK2GDHuvUot-21" edge="1">
                    <mxGeometry relative="1" as="geometry"/>
                </mxCell>
                <mxCell id="2Pb3vf8uHDK2GDHuvUot-14" value="GitHub" style="verticalLabelPosition=bottom;html=1;verticalAlign=top;align=center;strokeColor=none;fillColor=#00BEF2;shape=mxgraph.azure.github_code;pointerEvents=1;fontColor=#000000;" parent="2Pb3vf8uHDK2GDHuvUot-1" vertex="1">
                    <mxGeometry x="-660" y="-210" width="40" height="40" as="geometry"/>
                </mxCell>
                <mxCell id="2Pb3vf8uHDK2GDHuvUot-21" value="" style="dashed=0;outlineConnect=0;html=1;align=center;labelPosition=center;verticalLabelPosition=bottom;verticalAlign=top;shape=mxgraph.weblogos.github" parent="2Pb3vf8uHDK2GDHuvUot-1" vertex="1">
                    <mxGeometry x="-660" y="-10" width="40" height="40" as="geometry"/>
                </mxCell>
                <mxCell id="b1emzD9QmPzB0jJMNrQz-1" value="Build" style="rounded=0;whiteSpace=wrap;html=1;fillColor=#dae8fc;strokeColor=#6c8ebf;fontStyle=0" parent="2Pb3vf8uHDK2GDHuvUot-1" vertex="1">
                    <mxGeometry x="-700" y="80" width="120" height="40" as="geometry"/>
                </mxCell>
                <mxCell id="b1emzD9QmPzB0jJMNrQz-4" style="edgeStyle=none;html=1;sourcePerimeterSpacing=6;targetPerimeterSpacing=6;" parent="2Pb3vf8uHDK2GDHuvUot-1" source="b1emzD9QmPzB0jJMNrQz-1" target="b1emzD9QmPzB0jJMNrQz-2" edge="1">
                    <mxGeometry relative="1" as="geometry"/>
                </mxCell>
                <mxCell id="b1emzD9QmPzB0jJMNrQz-2" value="Test" style="rounded=0;whiteSpace=wrap;html=1;fillColor=#dae8fc;strokeColor=#6c8ebf;fontStyle=0" parent="2Pb3vf8uHDK2GDHuvUot-1" vertex="1">
                    <mxGeometry x="-700" y="160" width="120" height="40" as="geometry"/>
                </mxCell>
                <mxCell id="b1emzD9QmPzB0jJMNrQz-5" style="edgeStyle=none;html=1;sourcePerimeterSpacing=6;targetPerimeterSpacing=6;" parent="2Pb3vf8uHDK2GDHuvUot-1" source="b1emzD9QmPzB0jJMNrQz-2" target="b1emzD9QmPzB0jJMNrQz-3" edge="1">
                    <mxGeometry relative="1" as="geometry"/>
                </mxCell>
                <mxCell id="b1emzD9QmPzB0jJMNrQz-3" value="CodeQL Analysis" style="rounded=0;whiteSpace=wrap;html=1;fillColor=#dae8fc;strokeColor=#6c8ebf;fontStyle=0" parent="2Pb3vf8uHDK2GDHuvUot-1" vertex="1">
                    <mxGeometry x="-700" y="240" width="120" height="40" as="geometry"/>
                </mxCell>
                <mxCell id="b1emzD9QmPzB0jJMNrQz-8" style="edgeStyle=none;html=1;sourcePerimeterSpacing=6;targetPerimeterSpacing=6;" parent="2Pb3vf8uHDK2GDHuvUot-1" source="b1emzD9QmPzB0jJMNrQz-3" target="b1emzD9QmPzB0jJMNrQz-7" edge="1">
                    <mxGeometry relative="1" as="geometry"/>
                </mxCell>
                <mxCell id="3" value="Trigger Deployment" style="edgeStyle=orthogonalEdgeStyle;rounded=0;html=1;sourcePerimeterSpacing=6;targetPerimeterSpacing=6;fillColor=#ffe6cc;strokeColor=#D86613;fontColor=#D86613;" edge="1" parent="2Pb3vf8uHDK2GDHuvUot-1" source="b1emzD9QmPzB0jJMNrQz-6" target="2Pb3vf8uHDK2GDHuvUot-11">
                    <mxGeometry x="-0.1881" relative="1" as="geometry">
                        <Array as="points">
                            <mxPoint x="-440" y="420"/>
                            <mxPoint x="-440" y="230"/>
                        </Array>
                        <mxPoint as="offset"/>
                    </mxGeometry>
                </mxCell>
                <mxCell id="b1emzD9QmPzB0jJMNrQz-6" value="Trigger Deploy" style="rounded=0;whiteSpace=wrap;html=1;fillColor=#dae8fc;strokeColor=#6c8ebf;fontStyle=0" parent="2Pb3vf8uHDK2GDHuvUot-1" vertex="1">
                    <mxGeometry x="-700" y="400" width="120" height="40" as="geometry"/>
                </mxCell>
                <mxCell id="b1emzD9QmPzB0jJMNrQz-9" style="edgeStyle=none;html=1;sourcePerimeterSpacing=6;targetPerimeterSpacing=6;" parent="2Pb3vf8uHDK2GDHuvUot-1" source="b1emzD9QmPzB0jJMNrQz-7" target="b1emzD9QmPzB0jJMNrQz-6" edge="1">
                    <mxGeometry relative="1" as="geometry"/>
                </mxCell>
                <mxCell id="4" style="edgeStyle=orthogonalEdgeStyle;rounded=0;html=1;sourcePerimeterSpacing=6;targetPerimeterSpacing=6;fillColor=#dae8fc;strokeColor=#6c8ebf;" edge="1" parent="2Pb3vf8uHDK2GDHuvUot-1" source="b1emzD9QmPzB0jJMNrQz-7" target="2Pb3vf8uHDK2GDHuvUot-11">
                    <mxGeometry relative="1" as="geometry">
                        <Array as="points">
                            <mxPoint x="-480" y="340"/>
                            <mxPoint x="-480" y="220"/>
                        </Array>
                    </mxGeometry>
                </mxCell>
                <mxCell id="b1emzD9QmPzB0jJMNrQz-7" value="Upload to S3" style="rounded=0;whiteSpace=wrap;html=1;fillColor=#dae8fc;strokeColor=#6c8ebf;fontStyle=0" parent="2Pb3vf8uHDK2GDHuvUot-1" vertex="1">
                    <mxGeometry x="-700" y="320" width="120" height="40" as="geometry"/>
                </mxCell>
            </root>
        </mxGraphModel>
    </diagram>
    <diagram name="CodeBuild" id="TEJixjHK7rmSGY0mt6g5">
        <mxGraphModel dx="1867" dy="1934" grid="1" gridSize="10" guides="1" tooltips="1" connect="1" arrows="1" fold="1" page="1" pageScale="1" pageWidth="850" pageHeight="1100" math="0" shadow="0">
            <root>
                <mxCell id="FZET6pjWCq2QzhJO4VCN-0"/>
                <mxCell id="FZET6pjWCq2QzhJO4VCN-1" parent="FZET6pjWCq2QzhJO4VCN-0"/>
                <mxCell id="FZET6pjWCq2QzhJO4VCN-2" value="AWS Cloud" style="points=[[0,0],[0.25,0],[0.5,0],[0.75,0],[1,0],[1,0.25],[1,0.5],[1,0.75],[1,1],[0.75,1],[0.5,1],[0.25,1],[0,1],[0,0.75],[0,0.5],[0,0.25]];outlineConnect=0;gradientColor=none;html=1;whiteSpace=wrap;fontSize=12;fontStyle=0;container=1;pointerEvents=0;collapsible=0;recursiveResize=0;shape=mxgraph.aws4.group;grIcon=mxgraph.aws4.group_aws_cloud_alt;strokeColor=#232F3E;fillColor=none;verticalAlign=top;align=left;spacingLeft=30;fontColor=#232F3E;dashed=0;" parent="FZET6pjWCq2QzhJO4VCN-1" vertex="1">
                    <mxGeometry x="-520" y="40" width="840" height="600" as="geometry"/>
                </mxCell>
                <mxCell id="FZET6pjWCq2QzhJO4VCN-3" value="VPC - 10.0.0.0/16" style="points=[[0,0],[0.25,0],[0.5,0],[0.75,0],[1,0],[1,0.25],[1,0.5],[1,0.75],[1,1],[0.75,1],[0.5,1],[0.25,1],[0,1],[0,0.75],[0,0.5],[0,0.25]];outlineConnect=0;gradientColor=none;html=1;whiteSpace=wrap;fontSize=12;fontStyle=0;container=1;pointerEvents=0;collapsible=0;recursiveResize=0;shape=mxgraph.aws4.group;grIcon=mxgraph.aws4.group_vpc;strokeColor=#248814;fillColor=none;verticalAlign=top;align=left;spacingLeft=30;fontColor=#AAB7B8;dashed=0;" parent="FZET6pjWCq2QzhJO4VCN-1" vertex="1">
                    <mxGeometry x="-480" y="80" width="480" height="480" as="geometry"/>
                </mxCell>
                <mxCell id="FZET6pjWCq2QzhJO4VCN-4" value="Public subnet - 10.0.1.0/24" style="points=[[0,0],[0.25,0],[0.5,0],[0.75,0],[1,0],[1,0.25],[1,0.5],[1,0.75],[1,1],[0.75,1],[0.5,1],[0.25,1],[0,1],[0,0.75],[0,0.5],[0,0.25]];outlineConnect=0;gradientColor=none;html=1;whiteSpace=wrap;fontSize=12;fontStyle=0;container=1;pointerEvents=0;collapsible=0;recursiveResize=0;shape=mxgraph.aws4.group;grIcon=mxgraph.aws4.group_security_group;grStroke=0;strokeColor=#248814;fillColor=#E9F3E6;verticalAlign=top;align=left;spacingLeft=30;fontColor=#248814;dashed=0;" parent="FZET6pjWCq2QzhJO4VCN-3" vertex="1">
                    <mxGeometry x="40" y="40" width="400" height="400" as="geometry"/>
                </mxCell>
                <mxCell id="FZET6pjWCq2QzhJO4VCN-5" value="Jenkins Server" style="fillColor=none;strokeColor=#F78E04;dashed=1;verticalAlign=top;fontStyle=0;fontColor=#000000;" parent="FZET6pjWCq2QzhJO4VCN-4" vertex="1">
                    <mxGeometry x="220" y="100" width="160" height="260" as="geometry"/>
                </mxCell>
                <mxCell id="FZET6pjWCq2QzhJO4VCN-6" value="Build" style="rounded=0;whiteSpace=wrap;html=1;fillColor=#ffe6cc;strokeColor=#d79b00;fontStyle=0" parent="FZET6pjWCq2QzhJO4VCN-4" vertex="1">
                    <mxGeometry x="240" y="140" width="120" height="40" as="geometry"/>
                </mxCell>
                <mxCell id="FZET6pjWCq2QzhJO4VCN-7" value="Test" style="rounded=0;whiteSpace=wrap;html=1;fillColor=#ffe6cc;strokeColor=#d79b00;fontStyle=0" parent="FZET6pjWCq2QzhJO4VCN-4" vertex="1">
                    <mxGeometry x="240" y="220" width="120" height="40" as="geometry"/>
                </mxCell>
                <mxCell id="FZET6pjWCq2QzhJO4VCN-8" style="edgeStyle=orthogonalEdgeStyle;rounded=0;html=1;sourcePerimeterSpacing=6;targetPerimeterSpacing=6;" parent="FZET6pjWCq2QzhJO4VCN-4" source="FZET6pjWCq2QzhJO4VCN-6" target="FZET6pjWCq2QzhJO4VCN-7" edge="1">
                    <mxGeometry relative="1" as="geometry"/>
                </mxCell>
                <mxCell id="FZET6pjWCq2QzhJO4VCN-9" value="Deploy" style="rounded=0;whiteSpace=wrap;html=1;fillColor=#ffe6cc;strokeColor=#d79b00;fontStyle=0" parent="FZET6pjWCq2QzhJO4VCN-4" vertex="1">
                    <mxGeometry x="240" y="300" width="120" height="40" as="geometry"/>
                </mxCell>
                <mxCell id="FZET6pjWCq2QzhJO4VCN-10" style="edgeStyle=orthogonalEdgeStyle;rounded=0;html=1;sourcePerimeterSpacing=6;targetPerimeterSpacing=6;" parent="FZET6pjWCq2QzhJO4VCN-4" source="FZET6pjWCq2QzhJO4VCN-7" target="FZET6pjWCq2QzhJO4VCN-9" edge="1">
                    <mxGeometry relative="1" as="geometry"/>
                </mxCell>
                <mxCell id="FZET6pjWCq2QzhJO4VCN-11" value="Web Server" style="sketch=0;points=[[0,0,0],[0.25,0,0],[0.5,0,0],[0.75,0,0],[1,0,0],[0,1,0],[0.25,1,0],[0.5,1,0],[0.75,1,0],[1,1,0],[0,0.25,0],[0,0.5,0],[0,0.75,0],[1,0.25,0],[1,0.5,0],[1,0.75,0]];outlineConnect=0;fontColor=#232F3E;gradientColor=#F78E04;gradientDirection=north;fillColor=#D05C17;strokeColor=#ffffff;dashed=0;verticalLabelPosition=bottom;verticalAlign=top;align=center;html=1;fontSize=12;fontStyle=0;aspect=fixed;shape=mxgraph.aws4.resourceIcon;resIcon=mxgraph.aws4.ec2;" parent="FZET6pjWCq2QzhJO4VCN-4" vertex="1">
                    <mxGeometry x="80" y="50" width="40" height="40" as="geometry"/>
                </mxCell>
                <mxCell id="FZET6pjWCq2QzhJO4VCN-12" value="" style="sketch=0;points=[[0,0,0],[0.25,0,0],[0.5,0,0],[0.75,0,0],[1,0,0],[0,1,0],[0.25,1,0],[0.5,1,0],[0.75,1,0],[1,1,0],[0,0.25,0],[0,0.5,0],[0,0.75,0],[1,0.25,0],[1,0.5,0],[1,0.75,0]];outlineConnect=0;fontColor=#232F3E;gradientColor=#F78E04;gradientDirection=north;fillColor=#D05C17;strokeColor=#ffffff;dashed=0;verticalLabelPosition=bottom;verticalAlign=top;align=center;html=1;fontSize=12;fontStyle=0;aspect=fixed;shape=mxgraph.aws4.resourceIcon;resIcon=mxgraph.aws4.ec2;" parent="FZET6pjWCq2QzhJO4VCN-4" vertex="1">
                    <mxGeometry x="280" y="50" width="40" height="40" as="geometry"/>
                </mxCell>
                <mxCell id="FZET6pjWCq2QzhJO4VCN-13" value="Webhook" style="edgeStyle=orthogonalEdgeStyle;rounded=0;html=1;fontColor=#000000;endArrow=classic;endFill=1;sourcePerimeterSpacing=24;targetPerimeterSpacing=6;strokeWidth=1;" parent="FZET6pjWCq2QzhJO4VCN-1" source="FZET6pjWCq2QzhJO4VCN-14" target="FZET6pjWCq2QzhJO4VCN-12" edge="1">
                    <mxGeometry x="-0.4909" relative="1" as="geometry">
                        <mxPoint as="offset"/>
                    </mxGeometry>
                </mxCell>
                <mxCell id="FZET6pjWCq2QzhJO4VCN-14" value="GitHub" style="verticalLabelPosition=bottom;html=1;verticalAlign=top;align=center;strokeColor=none;fillColor=#00BEF2;shape=mxgraph.azure.github_code;pointerEvents=1;fontColor=#000000;" parent="FZET6pjWCq2QzhJO4VCN-1" vertex="1">
                    <mxGeometry x="-160" y="-120" width="40" height="40" as="geometry"/>
                </mxCell>
                <mxCell id="FZET6pjWCq2QzhJO4VCN-15" value="CodeBuid" style="sketch=0;points=[[0,0,0],[0.25,0,0],[0.5,0,0],[0.75,0,0],[1,0,0],[0,1,0],[0.25,1,0],[0.5,1,0],[0.75,1,0],[1,1,0],[0,0.25,0],[0,0.5,0],[0,0.75,0],[1,0.25,0],[1,0.5,0],[1,0.75,0]];outlineConnect=0;fontColor=#232F3E;gradientColor=#4D72F3;gradientDirection=north;fillColor=#3334B9;strokeColor=#ffffff;dashed=0;verticalLabelPosition=bottom;verticalAlign=top;align=center;html=1;fontSize=12;fontStyle=0;aspect=fixed;shape=mxgraph.aws4.resourceIcon;resIcon=mxgraph.aws4.codebuild;" parent="FZET6pjWCq2QzhJO4VCN-1" vertex="1">
                    <mxGeometry x="160" y="260" width="40" height="40" as="geometry"/>
                </mxCell>
                <mxCell id="FZET6pjWCq2QzhJO4VCN-16" style="edgeStyle=orthogonalEdgeStyle;html=1;sourcePerimeterSpacing=6;targetPerimeterSpacing=6;rounded=0;" parent="FZET6pjWCq2QzhJO4VCN-1" source="FZET6pjWCq2QzhJO4VCN-15" target="FZET6pjWCq2QzhJO4VCN-18" edge="1">
                    <mxGeometry relative="1" as="geometry"/>
                </mxCell>
                <mxCell id="FZET6pjWCq2QzhJO4VCN-17" value="Trigger Build" style="edgeStyle=orthogonalEdgeStyle;rounded=0;html=1;sourcePerimeterSpacing=6;targetPerimeterSpacing=6;align=left;" parent="FZET6pjWCq2QzhJO4VCN-1" source="FZET6pjWCq2QzhJO4VCN-6" target="FZET6pjWCq2QzhJO4VCN-15" edge="1">
                    <mxGeometry x="-0.0877" relative="1" as="geometry">
                        <mxPoint as="offset"/>
                    </mxGeometry>
                </mxCell>
                <mxCell id="FZET6pjWCq2QzhJO4VCN-18" value="Artifact S3" style="sketch=0;points=[[0,0,0],[0.25,0,0],[0.5,0,0],[0.75,0,0],[1,0,0],[0,1,0],[0.25,1,0],[0.5,1,0],[0.75,1,0],[1,1,0],[0,0.25,0],[0,0.5,0],[0,0.75,0],[1,0.25,0],[1,0.5,0],[1,0.75,0]];outlineConnect=0;fontColor=#232F3E;gradientColor=#60A337;gradientDirection=north;fillColor=#277116;strokeColor=#ffffff;dashed=0;verticalLabelPosition=bottom;verticalAlign=top;align=center;html=1;fontSize=12;fontStyle=0;aspect=fixed;shape=mxgraph.aws4.resourceIcon;resIcon=mxgraph.aws4.s3;" parent="FZET6pjWCq2QzhJO4VCN-1" vertex="1">
                    <mxGeometry x="240" y="340" width="40" height="40" as="geometry"/>
                </mxCell>
                <mxCell id="FZET6pjWCq2QzhJO4VCN-19" value="Verify Tests" style="edgeStyle=orthogonalEdgeStyle;rounded=0;html=1;sourcePerimeterSpacing=6;targetPerimeterSpacing=6;align=left;" parent="FZET6pjWCq2QzhJO4VCN-1" source="FZET6pjWCq2QzhJO4VCN-7" target="FZET6pjWCq2QzhJO4VCN-18" edge="1">
                    <mxGeometry x="-0.3247" relative="1" as="geometry">
                        <mxPoint as="offset"/>
                    </mxGeometry>
                </mxCell>
                <mxCell id="FZET6pjWCq2QzhJO4VCN-20" value="Retrieve Deployment Artifacts" style="edgeStyle=orthogonalEdgeStyle;rounded=0;html=1;fontColor=#6C8EBF;sourcePerimeterSpacing=24;targetPerimeterSpacing=24;fillColor=#d5e8d4;strokeColor=#6C8EBF;dashed=1;strokeWidth=1;endArrow=classic;endFill=1;" parent="FZET6pjWCq2QzhJO4VCN-1" source="FZET6pjWCq2QzhJO4VCN-11" target="FZET6pjWCq2QzhJO4VCN-18" edge="1">
                    <mxGeometry x="0.205" relative="1" as="geometry">
                        <Array as="points">
                            <mxPoint x="-350" y="620"/>
                            <mxPoint x="260" y="620"/>
                        </Array>
                        <mxPoint as="offset"/>
                    </mxGeometry>
                </mxCell>
                <mxCell id="FZET6pjWCq2QzhJO4VCN-21" value="CodeDeploy" style="sketch=0;points=[[0,0,0],[0.25,0,0],[0.5,0,0],[0.75,0,0],[1,0,0],[0,1,0],[0.25,1,0],[0.5,1,0],[0.75,1,0],[1,1,0],[0,0.25,0],[0,0.5,0],[0,0.75,0],[1,0.25,0],[1,0.5,0],[1,0.75,0]];outlineConnect=0;fontColor=#232F3E;gradientColor=#4D72F3;gradientDirection=north;fillColor=#3334B9;strokeColor=#ffffff;dashed=0;verticalLabelPosition=bottom;verticalAlign=top;align=center;html=1;fontSize=12;fontStyle=0;aspect=fixed;shape=mxgraph.aws4.resourceIcon;resIcon=mxgraph.aws4.codedeploy;" parent="FZET6pjWCq2QzhJO4VCN-1" vertex="1">
                    <mxGeometry x="160" y="420" width="40" height="40" as="geometry"/>
                </mxCell>
                <mxCell id="FZET6pjWCq2QzhJO4VCN-22" value="Trigger Deploy" style="edgeStyle=orthogonalEdgeStyle;rounded=0;html=1;sourcePerimeterSpacing=6;targetPerimeterSpacing=6;align=left;" parent="FZET6pjWCq2QzhJO4VCN-1" source="FZET6pjWCq2QzhJO4VCN-9" target="FZET6pjWCq2QzhJO4VCN-21" edge="1">
                    <mxGeometry x="-0.0877" relative="1" as="geometry">
                        <mxPoint as="offset"/>
                    </mxGeometry>
                </mxCell>
                <mxCell id="FZET6pjWCq2QzhJO4VCN-23" style="edgeStyle=orthogonalEdgeStyle;rounded=0;html=1;fontColor=#D86613;sourcePerimeterSpacing=24;targetPerimeterSpacing=24;" parent="FZET6pjWCq2QzhJO4VCN-1" source="FZET6pjWCq2QzhJO4VCN-21" target="FZET6pjWCq2QzhJO4VCN-11" edge="1">
                    <mxGeometry relative="1" as="geometry">
                        <Array as="points">
                            <mxPoint x="180" y="590"/>
                            <mxPoint x="-330" y="590"/>
                        </Array>
                    </mxGeometry>
                </mxCell>
            </root>
        </mxGraphModel>
    </diagram>
    <diagram id="emSyyKHlabQr8u7ifUQD" name="Docker">
        <mxGraphModel dx="1926" dy="1984" grid="1" gridSize="10" guides="1" tooltips="1" connect="1" arrows="1" fold="1" page="1" pageScale="1" pageWidth="850" pageHeight="1100" math="0" shadow="0">
            <root>
                <mxCell id="QqRjBjeVaL0DfRsyk7z6-0"/>
                <mxCell id="QqRjBjeVaL0DfRsyk7z6-1" parent="QqRjBjeVaL0DfRsyk7z6-0"/>
                <mxCell id="V36zsHKEVFMK3_VuUaqc-28" value="AWS Cloud" style="points=[[0,0],[0.25,0],[0.5,0],[0.75,0],[1,0],[1,0.25],[1,0.5],[1,0.75],[1,1],[0.75,1],[0.5,1],[0.25,1],[0,1],[0,0.75],[0,0.5],[0,0.25]];outlineConnect=0;gradientColor=none;html=1;whiteSpace=wrap;fontSize=12;fontStyle=0;container=1;pointerEvents=0;collapsible=0;recursiveResize=0;shape=mxgraph.aws4.group;grIcon=mxgraph.aws4.group_aws_cloud_alt;strokeColor=#232F3E;fillColor=none;verticalAlign=top;align=left;spacingLeft=30;fontColor=#232F3E;dashed=0;" parent="QqRjBjeVaL0DfRsyk7z6-1" vertex="1">
                    <mxGeometry x="-520" y="40" width="840" height="600" as="geometry"/>
                </mxCell>
                <mxCell id="V36zsHKEVFMK3_VuUaqc-19" value="VPC - 10.0.0.0/16" style="points=[[0,0],[0.25,0],[0.5,0],[0.75,0],[1,0],[1,0.25],[1,0.5],[1,0.75],[1,1],[0.75,1],[0.5,1],[0.25,1],[0,1],[0,0.75],[0,0.5],[0,0.25]];outlineConnect=0;gradientColor=none;html=1;whiteSpace=wrap;fontSize=12;fontStyle=0;container=1;pointerEvents=0;collapsible=0;recursiveResize=0;shape=mxgraph.aws4.group;grIcon=mxgraph.aws4.group_vpc;strokeColor=#248814;fillColor=none;verticalAlign=top;align=left;spacingLeft=30;fontColor=#AAB7B8;dashed=0;" parent="QqRjBjeVaL0DfRsyk7z6-1" vertex="1">
                    <mxGeometry x="-480" y="80" width="480" height="480" as="geometry"/>
                </mxCell>
                <mxCell id="V36zsHKEVFMK3_VuUaqc-18" value="Public subnet - 10.0.1.0/24" style="points=[[0,0],[0.25,0],[0.5,0],[0.75,0],[1,0],[1,0.25],[1,0.5],[1,0.75],[1,1],[0.75,1],[0.5,1],[0.25,1],[0,1],[0,0.75],[0,0.5],[0,0.25]];outlineConnect=0;gradientColor=none;html=1;whiteSpace=wrap;fontSize=12;fontStyle=0;container=1;pointerEvents=0;collapsible=0;recursiveResize=0;shape=mxgraph.aws4.group;grIcon=mxgraph.aws4.group_security_group;grStroke=0;strokeColor=#248814;fillColor=#E9F3E6;verticalAlign=top;align=left;spacingLeft=30;fontColor=#248814;dashed=0;" parent="V36zsHKEVFMK3_VuUaqc-19" vertex="1">
                    <mxGeometry x="40" y="40" width="400" height="400" as="geometry"/>
                </mxCell>
                <mxCell id="V36zsHKEVFMK3_VuUaqc-1" value="Jenkins Server" style="fillColor=none;strokeColor=#F78E04;dashed=1;verticalAlign=top;fontStyle=0;fontColor=#000000;" parent="V36zsHKEVFMK3_VuUaqc-18" vertex="1">
                    <mxGeometry x="220" y="100" width="160" height="260" as="geometry"/>
                </mxCell>
                <mxCell id="V36zsHKEVFMK3_VuUaqc-10" value="Build" style="rounded=0;whiteSpace=wrap;html=1;fillColor=#ffe6cc;strokeColor=#d79b00;fontStyle=0" parent="V36zsHKEVFMK3_VuUaqc-18" vertex="1">
                    <mxGeometry x="240" y="140" width="120" height="40" as="geometry"/>
                </mxCell>
                <mxCell id="V36zsHKEVFMK3_VuUaqc-11" value="Test" style="rounded=0;whiteSpace=wrap;html=1;fillColor=#ffe6cc;strokeColor=#d79b00;fontStyle=0" parent="V36zsHKEVFMK3_VuUaqc-18" vertex="1">
                    <mxGeometry x="240" y="220" width="120" height="40" as="geometry"/>
                </mxCell>
                <mxCell id="V36zsHKEVFMK3_VuUaqc-15" style="edgeStyle=orthogonalEdgeStyle;rounded=0;html=1;sourcePerimeterSpacing=6;targetPerimeterSpacing=6;" parent="V36zsHKEVFMK3_VuUaqc-18" source="V36zsHKEVFMK3_VuUaqc-10" target="V36zsHKEVFMK3_VuUaqc-11" edge="1">
                    <mxGeometry relative="1" as="geometry"/>
                </mxCell>
                <mxCell id="V36zsHKEVFMK3_VuUaqc-12" value="Deploy" style="rounded=0;whiteSpace=wrap;html=1;fillColor=#ffe6cc;strokeColor=#d79b00;fontStyle=0" parent="V36zsHKEVFMK3_VuUaqc-18" vertex="1">
                    <mxGeometry x="240" y="300" width="120" height="40" as="geometry"/>
                </mxCell>
                <mxCell id="V36zsHKEVFMK3_VuUaqc-16" style="edgeStyle=orthogonalEdgeStyle;rounded=0;html=1;sourcePerimeterSpacing=6;targetPerimeterSpacing=6;" parent="V36zsHKEVFMK3_VuUaqc-18" source="V36zsHKEVFMK3_VuUaqc-11" target="V36zsHKEVFMK3_VuUaqc-12" edge="1">
                    <mxGeometry relative="1" as="geometry"/>
                </mxCell>
                <mxCell id="V36zsHKEVFMK3_VuUaqc-20" value="Web Server" style="sketch=0;points=[[0,0,0],[0.25,0,0],[0.5,0,0],[0.75,0,0],[1,0,0],[0,1,0],[0.25,1,0],[0.5,1,0],[0.75,1,0],[1,1,0],[0,0.25,0],[0,0.5,0],[0,0.75,0],[1,0.25,0],[1,0.5,0],[1,0.75,0]];outlineConnect=0;fontColor=#232F3E;gradientColor=#F78E04;gradientDirection=north;fillColor=#D05C17;strokeColor=#ffffff;dashed=0;verticalLabelPosition=bottom;verticalAlign=top;align=center;html=1;fontSize=12;fontStyle=0;aspect=fixed;shape=mxgraph.aws4.resourceIcon;resIcon=mxgraph.aws4.ec2;" parent="V36zsHKEVFMK3_VuUaqc-18" vertex="1">
                    <mxGeometry x="80" y="50" width="40" height="40" as="geometry"/>
                </mxCell>
                <mxCell id="V36zsHKEVFMK3_VuUaqc-21" value="" style="sketch=0;points=[[0,0,0],[0.25,0,0],[0.5,0,0],[0.75,0,0],[1,0,0],[0,1,0],[0.25,1,0],[0.5,1,0],[0.75,1,0],[1,1,0],[0,0.25,0],[0,0.5,0],[0,0.75,0],[1,0.25,0],[1,0.5,0],[1,0.75,0]];outlineConnect=0;fontColor=#232F3E;gradientColor=#F78E04;gradientDirection=north;fillColor=#D05C17;strokeColor=#ffffff;dashed=0;verticalLabelPosition=bottom;verticalAlign=top;align=center;html=1;fontSize=12;fontStyle=0;aspect=fixed;shape=mxgraph.aws4.resourceIcon;resIcon=mxgraph.aws4.ec2;" parent="V36zsHKEVFMK3_VuUaqc-18" vertex="1">
                    <mxGeometry x="280" y="50" width="40" height="40" as="geometry"/>
                </mxCell>
                <mxCell id="V36zsHKEVFMK3_VuUaqc-27" value="Webhook" style="edgeStyle=orthogonalEdgeStyle;rounded=0;html=1;fontColor=#000000;endArrow=classic;endFill=1;sourcePerimeterSpacing=24;targetPerimeterSpacing=6;strokeWidth=1;" parent="QqRjBjeVaL0DfRsyk7z6-1" source="V36zsHKEVFMK3_VuUaqc-26" target="V36zsHKEVFMK3_VuUaqc-21" edge="1">
                    <mxGeometry x="-0.4909" relative="1" as="geometry">
                        <mxPoint as="offset"/>
                    </mxGeometry>
                </mxCell>
                <mxCell id="V36zsHKEVFMK3_VuUaqc-26" value="GitHub" style="verticalLabelPosition=bottom;html=1;verticalAlign=top;align=center;strokeColor=none;fillColor=#00BEF2;shape=mxgraph.azure.github_code;pointerEvents=1;fontColor=#000000;" parent="QqRjBjeVaL0DfRsyk7z6-1" vertex="1">
                    <mxGeometry x="-160" y="-120" width="40" height="40" as="geometry"/>
                </mxCell>
                <mxCell id="V36zsHKEVFMK3_VuUaqc-14" value="Build with Docker and Upload Artifacts" style="edgeStyle=orthogonalEdgeStyle;rounded=0;html=1;sourcePerimeterSpacing=6;targetPerimeterSpacing=6;align=left;" parent="QqRjBjeVaL0DfRsyk7z6-1" source="V36zsHKEVFMK3_VuUaqc-10" target="V36zsHKEVFMK3_VuUaqc-6" edge="1">
                    <mxGeometry x="-0.4124" relative="1" as="geometry">
                        <mxPoint as="offset"/>
                        <mxPoint x="153.99999999999955" y="280" as="targetPoint"/>
                    </mxGeometry>
                </mxCell>
                <mxCell id="V36zsHKEVFMK3_VuUaqc-6" value="Artifact S3" style="sketch=0;points=[[0,0,0],[0.25,0,0],[0.5,0,0],[0.75,0,0],[1,0,0],[0,1,0],[0.25,1,0],[0.5,1,0],[0.75,1,0],[1,1,0],[0,0.25,0],[0,0.5,0],[0,0.75,0],[1,0.25,0],[1,0.5,0],[1,0.75,0]];outlineConnect=0;fontColor=#232F3E;gradientColor=#60A337;gradientDirection=north;fillColor=#277116;strokeColor=#ffffff;dashed=0;verticalLabelPosition=bottom;verticalAlign=top;align=center;html=1;fontSize=12;fontStyle=0;aspect=fixed;shape=mxgraph.aws4.resourceIcon;resIcon=mxgraph.aws4.s3;" parent="QqRjBjeVaL0DfRsyk7z6-1" vertex="1">
                    <mxGeometry x="240" y="340" width="40" height="40" as="geometry"/>
                </mxCell>
                <mxCell id="V36zsHKEVFMK3_VuUaqc-25" value="Retrieve Deployment Artifacts" style="edgeStyle=orthogonalEdgeStyle;rounded=0;html=1;fontColor=#6C8EBF;sourcePerimeterSpacing=24;targetPerimeterSpacing=24;fillColor=#d5e8d4;strokeColor=#6C8EBF;dashed=1;strokeWidth=1;endArrow=classic;endFill=1;" parent="QqRjBjeVaL0DfRsyk7z6-1" source="V36zsHKEVFMK3_VuUaqc-20" target="V36zsHKEVFMK3_VuUaqc-6" edge="1">
                    <mxGeometry x="0.205" relative="1" as="geometry">
                        <Array as="points">
                            <mxPoint x="-350" y="620"/>
                            <mxPoint x="260" y="620"/>
                        </Array>
                        <mxPoint as="offset"/>
                    </mxGeometry>
                </mxCell>
                <mxCell id="V36zsHKEVFMK3_VuUaqc-7" value="CodeDeploy" style="sketch=0;points=[[0,0,0],[0.25,0,0],[0.5,0,0],[0.75,0,0],[1,0,0],[0,1,0],[0.25,1,0],[0.5,1,0],[0.75,1,0],[1,1,0],[0,0.25,0],[0,0.5,0],[0,0.75,0],[1,0.25,0],[1,0.5,0],[1,0.75,0]];outlineConnect=0;fontColor=#232F3E;gradientColor=#4D72F3;gradientDirection=north;fillColor=#3334B9;strokeColor=#ffffff;dashed=0;verticalLabelPosition=bottom;verticalAlign=top;align=center;html=1;fontSize=12;fontStyle=0;aspect=fixed;shape=mxgraph.aws4.resourceIcon;resIcon=mxgraph.aws4.codedeploy;" parent="QqRjBjeVaL0DfRsyk7z6-1" vertex="1">
                    <mxGeometry x="160" y="420" width="40" height="40" as="geometry"/>
                </mxCell>
                <mxCell id="V36zsHKEVFMK3_VuUaqc-13" value="Trigger Deploy" style="edgeStyle=orthogonalEdgeStyle;rounded=0;html=1;sourcePerimeterSpacing=6;targetPerimeterSpacing=6;align=left;" parent="QqRjBjeVaL0DfRsyk7z6-1" source="V36zsHKEVFMK3_VuUaqc-12" target="V36zsHKEVFMK3_VuUaqc-7" edge="1">
                    <mxGeometry x="-0.0877" relative="1" as="geometry">
                        <mxPoint as="offset"/>
                    </mxGeometry>
                </mxCell>
                <mxCell id="V36zsHKEVFMK3_VuUaqc-24" style="edgeStyle=orthogonalEdgeStyle;rounded=0;html=1;fontColor=#D86613;sourcePerimeterSpacing=24;targetPerimeterSpacing=24;" parent="QqRjBjeVaL0DfRsyk7z6-1" source="V36zsHKEVFMK3_VuUaqc-7" target="V36zsHKEVFMK3_VuUaqc-20" edge="1">
                    <mxGeometry relative="1" as="geometry">
                        <Array as="points">
                            <mxPoint x="180" y="590"/>
                            <mxPoint x="-330" y="590"/>
                        </Array>
                    </mxGeometry>
                </mxCell>
            </root>
        </mxGraphModel>
    </diagram>
</mxfile>